<?xml version="1.0" encoding="UTF-8" standalone="no"?>
<!-- Generator: Adobe Illustrator 24.1.1, SVG Export Plug-In . SVG Version: 6.00 Build 0)  -->

<svg
   xmlns:dc="http://purl.org/dc/elements/1.1/"
   xmlns:cc="http://creativecommons.org/ns#"
   xmlns:rdf="http://www.w3.org/1999/02/22-rdf-syntax-ns#"
   xmlns:svg="http://www.w3.org/2000/svg"
   xmlns="http://www.w3.org/2000/svg"
   xmlns:sodipodi="http://sodipodi.sourceforge.net/DTD/sodipodi-0.dtd"
   xmlns:inkscape="http://www.inkscape.org/namespaces/inkscape"
   version="1.1"
   id="Layer_1"
   x="0px"
   y="0px"
   width="280px"
   height="60px"
   viewBox="0 0 280 60"
   style="enable-background:new 0 0 280 60;"
   xml:space="preserve"
   sodipodi:docname="hrc-logo.svg"
   inkscape:version="0.92.3 (2405546, 2018-03-11)"><metadata
   id="metadata46"><rdf:RDF><cc:Work
       rdf:about=""><dc:format>image/svg+xml</dc:format><dc:type
         rdf:resource="http://purl.org/dc/dcmitype/StillImage" /></cc:Work></rdf:RDF></metadata><defs
   id="defs44" /><sodipodi:namedview
   pagecolor="#ffffff"
   bordercolor="#666666"
   borderopacity="1"
   objecttolerance="10"
   gridtolerance="10"
   guidetolerance="10"
   inkscape:pageopacity="0"
   inkscape:pageshadow="2"
   inkscape:window-width="1280"
   inkscape:window-height="697"
   id="namedview42"
   showgrid="false"
   inkscape:zoom="1.0142857"
   inkscape:cx="140"
   inkscape:cy="30"
   inkscape:window-x="-8"
   inkscape:window-y="-8"
   inkscape:window-maximized="1"
   inkscape:current-layer="Layer_1" />
<style
   type="text/css"
   id="style2">
	.st0{fill:#666666;}
	.st1{fill:#FC7500;}
	.st2{fill:#8FD163;}
	.st3{fill:#4FC4F7;}
</style>
<g
   id="Layer_2_1_">
</g>
<g
   id="Layer_1_1_">
</g>
<g
   id="Layer_3_1_"
   transform="matrix(0.96476356,0,0,0.86832514,4.9295775,3.943662)">
	<g
   id="g38">
		<g
   id="g26">
			<path
   class="st0"
   d="m 79.5,30.5 c 0,-1.9 -0.5,-3.4 -1.6,-4.5 -1,-1.1 -2.5,-1.6 -4.4,-1.6 -2.3,0 -4.3,0.8 -6,2.3 v 20.1 c 0,0.5 -0.2,0.9 -0.5,1.3 -0.3,0.3 -0.8,0.5 -1.3,0.5 -0.5,0 -0.9,-0.2 -1.3,-0.5 -0.3,-0.3 -0.5,-0.8 -0.5,-1.3 V 12.3 c 0,-0.5 0.2,-0.9 0.5,-1.3 0.3,-0.3 0.8,-0.5 1.3,-0.5 0.5,0 0.9,0.2 1.3,0.5 0.3,0.3 0.5,0.8 0.5,1.3 v 10.4 c 0.9,-0.5 1.9,-0.9 2.9,-1.1 1,-0.3 2.1,-0.4 3.1,-0.4 1.4,0 2.7,0.2 3.9,0.7 1.2,0.5 2.2,1.1 3,2 0.8,0.8 1.5,1.8 1.9,3.1 0.5,1.2 0.7,2.5 0.7,4 v 16.2 c 0,0.5 -0.2,0.9 -0.5,1.3 -0.3,0.3 -0.8,0.5 -1.3,0.5 -0.5,0 -0.9,-0.2 -1.3,-0.5 -0.3,-0.3 -0.5,-0.8 -0.5,-1.3 V 30.5 Z"
   id="path6"
   inkscape:connector-curvature="0"
   style="fill:#666666" />
			<path
   class="st0"
   d="m 91.4,22.9 c 0,-0.5 0.2,-0.9 0.5,-1.3 0.3,-0.3 0.8,-0.5 1.3,-0.5 0.5,0 0.9,0.2 1.3,0.5 0.3,0.3 0.5,0.8 0.5,1.3 v 24 c 0,0.5 -0.2,0.9 -0.5,1.3 -0.3,0.3 -0.8,0.5 -1.3,0.5 -0.5,0 -0.9,-0.2 -1.3,-0.5 -0.3,-0.3 -0.5,-0.8 -0.5,-1.3 z"
   id="path8"
   inkscape:connector-curvature="0"
   style="fill:#666666" />
			<path
   class="st0"
   d="m 118.8,46.9 c -0.9,0.6 -1.9,1.1 -2.9,1.4 -1,0.3 -2,0.4 -3.1,0.4 -1.4,0 -2.7,-0.2 -3.9,-0.7 -1.2,-0.5 -2.2,-1.1 -3,-2 -0.8,-0.9 -1.5,-1.8 -1.9,-3.1 -0.5,-1.2 -0.7,-2.5 -0.7,-4 v -8.2 c 0,-1.4 0.2,-2.7 0.7,-4 0.5,-1.3 1.1,-2.2 1.9,-3.1 0.8,-0.8 1.8,-1.5 3,-2 1.2,-0.5 2.5,-0.7 3.9,-0.7 1.4,0 2.7,0.1 4,0.3 1.3,0.2 2.6,0.5 3.8,1 0.5,0.2 0.9,0.5 1.2,0.9 0.3,0.4 0.5,0.9 0.5,1.4 v 25.7 c 0,1.4 -0.2,2.7 -0.7,4 -0.5,1.2 -1.1,2.2 -1.9,3.1 -0.8,0.8 -1.8,1.5 -3,1.9 -1.2,0.5 -2.5,0.7 -3.9,0.7 -1.3,0 -2.5,-0.1 -3.7,-0.4 -1.2,-0.3 -2.4,-0.7 -3.5,-1.1 -0.7,-0.3 -1,-0.8 -1,-1.6 0,-0.5 0.2,-0.9 0.5,-1.2 0.3,-0.3 0.7,-0.5 1.2,-0.5 0.2,0 0.4,0.1 0.7,0.2 0.9,0.4 1.9,0.7 2.9,1 1,0.3 2,0.4 3,0.4 1.9,0 3.3,-0.6 4.4,-1.7 1,-1.1 1.6,-2.7 1.6,-4.6 z m 0,-21.6 c -1.9,-0.6 -3.9,-0.9 -5.9,-0.9 -1.9,0 -3.3,0.5 -4.4,1.6 -1.1,1.1 -1.6,2.5 -1.6,4.5 v 8.7 c 0,1.9 0.5,3.4 1.6,4.5 1.1,1.1 2.5,1.6 4.4,1.6 1.1,0 2.2,-0.2 3.2,-0.6 1,-0.4 1.9,-1 2.7,-1.7 0,0 0,-17.7 0,-17.7 z"
   id="path10"
   inkscape:connector-curvature="0"
   style="fill:#666666" />
			<path
   class="st0"
   d="m 145.6,30.5 c 0,-1.9 -0.5,-3.4 -1.6,-4.5 -1,-1.1 -2.5,-1.6 -4.4,-1.6 -2.3,0 -4.3,0.8 -6,2.3 v 20.1 c 0,0.5 -0.2,0.9 -0.5,1.3 -0.3,0.3 -0.8,0.5 -1.3,0.5 -0.5,0 -0.9,-0.2 -1.3,-0.5 -0.3,-0.3 -0.5,-0.8 -0.5,-1.3 V 12.3 c 0,-0.5 0.2,-0.9 0.5,-1.3 0.3,-0.3 0.8,-0.5 1.3,-0.5 0.5,0 0.9,0.2 1.3,0.5 0.3,0.3 0.5,0.8 0.5,1.3 v 10.4 c 0.9,-0.5 1.9,-0.9 2.9,-1.1 1,-0.3 2.1,-0.4 3.1,-0.4 1.4,0 2.7,0.2 3.9,0.7 1.2,0.5 2.2,1.1 3,2 0.8,0.8 1.5,1.8 1.9,3.1 0.5,1.2 0.7,2.5 0.7,4 v 16.2 c 0,0.5 -0.2,0.9 -0.5,1.3 -0.3,0.4 -0.8,0.5 -1.3,0.5 -0.5,0 -0.9,-0.2 -1.3,-0.5 -0.3,-0.3 -0.5,-0.8 -0.5,-1.3 V 30.5 Z"
   id="path12"
   inkscape:connector-curvature="0"
   style="fill:#666666" />
			<path
   class="st0"
   d="m 156.9,28.4 c 0,-1.1 0.2,-2.1 0.5,-2.9 0.3,-0.8 0.9,-1.6 1.5,-2.3 0.6,-0.7 1.3,-1.1 2.2,-1.5 0.8,-0.3 1.7,-0.5 2.7,-0.5 1.2,0 2.4,0.1 3.8,0.4 0.4,0.1 0.8,0.3 1,0.6 0.3,0.3 0.4,0.7 0.4,1.1 0,0.5 -0.2,0.9 -0.5,1.2 -0.3,0.3 -0.8,0.5 -1.3,0.5 -0.1,0 -0.3,0 -0.4,-0.1 -0.1,0 -0.3,-0.1 -0.5,-0.1 -0.4,-0.1 -0.8,-0.1 -1.2,-0.2 -0.4,-0.1 -0.8,-0.1 -1.3,-0.1 -0.9,0 -1.7,0.3 -2.3,1 -0.6,0.6 -1,1.5 -1,2.7 v 18.7 c 0,0.5 -0.2,0.9 -0.5,1.3 -0.3,0.3 -0.8,0.5 -1.3,0.5 -0.5,0 -0.9,-0.2 -1.3,-0.5 -0.4,-0.3 -0.5,-0.8 -0.5,-1.3 z"
   id="path14"
   inkscape:connector-curvature="0"
   style="fill:#666666" />
			<path
   class="st0"
   d="m 190.8,45.1 c 0,0.5 -0.2,1 -0.5,1.4 -0.3,0.4 -0.7,0.7 -1.2,0.9 -1.3,0.4 -2.5,0.7 -3.8,1 -1.3,0.2 -2.6,0.3 -4,0.3 -3.2,0 -5.6,-0.7 -7.2,-2.2 -1.5,-1.4 -2.3,-3.4 -2.3,-5.9 0,-2.4 0.8,-4.5 2.3,-5.9 0.8,-0.7 1.8,-1.3 3,-1.6 1.2,-0.3 2.6,-0.5 4.2,-0.5 h 5.9 v -3.4 c 0,-1.6 -0.5,-2.7 -1.5,-3.6 -1,-0.9 -2.3,-1.2 -4,-1.2 -1,0 -2.1,0.1 -3,0.4 -1,0.3 -2,0.7 -3,1.3 -0.3,0.2 -0.6,0.3 -0.8,0.3 -0.5,0 -0.9,-0.1 -1.3,-0.4 -0.3,-0.3 -0.5,-0.7 -0.5,-1.2 0,-0.7 0.3,-1.2 0.9,-1.6 1.2,-0.8 2.5,-1.3 3.8,-1.6 1.3,-0.3 2.6,-0.5 3.9,-0.5 1.2,0 2.4,0.2 3.5,0.5 1.1,0.3 2.1,0.8 2.9,1.5 0.8,0.7 1.5,1.5 2,2.5 0.5,1 0.7,2.1 0.7,3.6 z m -3.5,-9.2 h -5.9 c -1.3,0 -2.4,0.1 -3.2,0.4 -0.8,0.3 -1.4,0.6 -1.8,1.1 -0.4,0.5 -0.7,0.9 -0.8,1.5 -0.1,0.5 -0.2,1.1 -0.2,1.6 0,0.5 0.1,1.1 0.2,1.6 0.1,0.6 0.4,1.1 0.8,1.5 0.4,0.4 1,0.9 1.8,1.1 0.8,0.3 1.9,0.4 3.2,0.4 2,0 4,-0.3 5.9,-0.9 z"
   id="path16"
   inkscape:connector-curvature="0"
   style="fill:#666666" />
			<path
   class="st0"
   d="m 208.1,48.7 c -1.4,0 -2.7,-0.2 -3.9,-0.7 -1.2,-0.5 -2.2,-1.1 -3,-2 -0.8,-0.8 -1.5,-1.8 -1.9,-3.1 -0.5,-1.2 -0.7,-2.5 -0.7,-4 v -8.2 c 0,-2.9 0.9,-5.3 2.6,-7.1 1.7,-1.7 4,-2.6 6.9,-2.6 1.1,0 2.1,0.1 3.1,0.4 1,0.3 2,0.7 2.9,1.1 V 12.3 c 0,-0.5 0.2,-0.9 0.5,-1.3 0.3,-0.3 0.8,-0.5 1.3,-0.5 0.5,0 0.9,0.2 1.3,0.5 0.3,0.3 0.5,0.8 0.5,1.3 V 45 c 0,0.5 -0.2,1 -0.5,1.4 -0.3,0.4 -0.7,0.7 -1.2,0.9 -1.3,0.4 -2.5,0.7 -3.8,1 -1.4,0.3 -2.7,0.4 -4.1,0.4 z m -6,-9.4 c 0,1.9 0.5,3.4 1.6,4.5 1,1.1 2.5,1.6 4.4,1.6 2.1,0 4,-0.3 6,-0.9 v -18 c -0.8,-0.8 -1.7,-1.3 -2.8,-1.6 -1,-0.3 -2.1,-0.5 -3.2,-0.5 -1.9,0 -3.3,0.5 -4.4,1.6 -1,1.1 -1.6,2.5 -1.6,4.5 z"
   id="path18"
   inkscape:connector-curvature="0"
   style="fill:#666666" />
			<path
   class="st0"
   d="m 226,22.9 c 0,-0.5 0.2,-0.9 0.5,-1.3 0.3,-0.3 0.8,-0.5 1.3,-0.5 0.5,0 0.9,0.2 1.3,0.5 0.3,0.3 0.5,0.8 0.5,1.3 v 24 c 0,0.5 -0.2,0.9 -0.5,1.3 -0.3,0.3 -0.8,0.5 -1.3,0.5 -0.5,0 -0.9,-0.2 -1.3,-0.5 -0.3,-0.3 -0.5,-0.8 -0.5,-1.3 z M 93.2,17.2 c -0.8,0 -1.4,-0.3 -1.9,-0.8 -0.5,-0.5 -0.8,-1.2 -0.8,-1.9 0,-0.8 0.3,-1.4 0.8,-1.9 0.5,-0.5 1.2,-0.8 1.9,-0.8 0.8,0 1.4,0.3 1.9,0.8 0.5,0.5 0.8,1.2 0.8,1.9 0,0.8 -0.3,1.4 -0.8,1.9 -0.5,0.5 -1.2,0.8 -1.9,0.8 z"
   id="path20"
   inkscape:connector-curvature="0"
   style="fill:#666666" />
			<path
   class="st0"
   d="m 253.4,22.9 c 0,-0.5 0.2,-0.9 0.5,-1.3 0.3,-0.3 0.8,-0.5 1.3,-0.5 0.5,0 0.9,0.2 1.3,0.5 0.3,0.3 0.5,0.8 0.5,1.3 v 22.2 c 0,0.5 -0.1,1 -0.4,1.4 -0.3,0.4 -0.7,0.7 -1.2,0.9 -1.3,0.4 -2.5,0.7 -3.9,1 -1.3,0.2 -2.7,0.3 -4,0.3 -3,0 -5.3,-0.9 -7,-2.6 -1.7,-1.7 -2.6,-4.1 -2.6,-7.1 V 22.9 c 0,-0.5 0.2,-0.9 0.5,-1.3 0.3,-0.3 0.8,-0.5 1.3,-0.5 0.5,0 0.9,0.2 1.3,0.5 0.3,0.3 0.5,0.8 0.5,1.3 v 16.4 c 0,1.9 0.5,3.4 1.6,4.5 1.1,1.1 2.5,1.6 4.4,1.6 2,0 4,-0.3 5.9,-0.9 z"
   id="path22"
   inkscape:connector-curvature="0"
   style="fill:#666666" />
			<path
   class="st0"
   d="m 268.1,35 c -1.2,-0.5 -2.3,-1.3 -3.2,-2.3 -0.9,-1 -1.4,-2.5 -1.4,-4.4 0,-1.1 0.2,-2.1 0.7,-2.9 0.5,-0.9 1.1,-1.6 1.8,-2.2 0.8,-0.6 1.7,-1.1 2.7,-1.4 1,-0.3 2.1,-0.5 3.3,-0.5 1.3,0 2.4,0.1 3.5,0.4 1,0.2 2,0.6 2.9,0.9 0.7,0.3 1.1,0.9 1.1,1.7 0,0.5 -0.2,0.9 -0.5,1.2 -0.3,0.3 -0.8,0.4 -1.3,0.4 -0.2,0 -0.4,-0.1 -0.7,-0.2 -1.6,-0.8 -3.4,-1.1 -5.4,-1.1 -0.5,0 -1,0.1 -1.6,0.2 -0.5,0.1 -1,0.3 -1.4,0.6 -0.4,0.3 -0.8,0.7 -1.1,1.1 -0.3,0.5 -0.4,1 -0.4,1.7 0,1 0.3,1.8 0.9,2.4 0.6,0.6 1.2,1 1.7,1.2 l 4.9,2 c 1.6,0.6 2.8,1.5 3.8,2.7 1,1.2 1.4,2.6 1.4,4.3 0,1.1 -0.2,2.1 -0.6,3.1 -0.4,1 -1,1.8 -1.7,2.5 -0.7,0.7 -1.6,1.2 -2.7,1.6 -1,0.4 -2.1,0.6 -3.3,0.6 -1.4,0 -2.6,-0.1 -3.7,-0.4 -1.1,-0.3 -2.2,-0.6 -3.2,-1.1 -0.7,-0.3 -1,-0.9 -1,-1.6 0,-0.5 0.2,-0.9 0.5,-1.2 0.3,-0.3 0.8,-0.5 1.3,-0.5 0.1,0 0.3,0 0.4,0.1 0.1,0 0.2,0.1 0.4,0.2 0.8,0.4 1.7,0.7 2.6,0.9 0.9,0.2 1.9,0.4 2.9,0.4 1.2,0 2.3,-0.3 3.2,-1 0.9,-0.7 1.4,-1.6 1.4,-2.8 0,-1.1 -0.3,-2 -0.8,-2.6 -0.5,-0.6 -1.4,-1.2 -2.5,-1.7 z"
   id="path24"
   inkscape:connector-curvature="0"
   style="fill:#666666" />
		</g>
		<path
   class="st1"
   d="m 227.5,17.2 c -0.8,0 -1.4,-0.3 -1.9,-0.8 -0.5,-0.5 -0.8,-1.2 -0.8,-1.9 0,-0.8 0.3,-1.4 0.8,-1.9 0.5,-0.5 1.2,-0.8 1.9,-0.8 0.8,0 1.4,0.3 1.9,0.8 0.5,0.5 0.8,1.2 0.8,1.9 0,0.8 -0.3,1.4 -0.8,1.9 -0.5,0.5 -1.1,0.8 -1.9,0.8 z"
   id="path28"
   inkscape:connector-curvature="0"
   style="fill:#fc7500" />
		<g
   id="g36">
			<g
   id="g32">
				<path
   id="Path_302_1_"
   class="st2"
   d="M 41.9,53.1 C 35.9,52.9 30.2,50.8 25.5,46.9 34.3,45 41.9,39.2 46.1,31 c 1.5,3.5 2.2,7.2 2.2,11.1 0,1.9 -0.2,3.9 -0.6,5.8 l -0.6,2.8 c -1,0.9 -2,1.7 -3.1,2.4 z"
   inkscape:connector-curvature="0"
   style="fill:#8fd163" />
				<path
   id="Path_303_1_"
   class="st3"
   d="M 27.6,58 C 25.3,58 23,57.7 20.8,57.1 9.8,54.3 1.6,45.1 0,33.7 0.2,33.3 0.4,32.8 0.7,31.9 0.8,31.4 1,30.9 1.3,30.4 3.7,24.2 8.6,19.2 14.7,16.8 c -1.6,3.6 -2.4,7.3 -2.4,11.2 0,14.2 10.5,25.8 24.8,28.5 -3,1 -6.3,1.5 -9.5,1.5 z"
   inkscape:connector-curvature="0"
   style="fill:#4fc4f7" />
			</g>
			<path
   class="st1"
   d="m 0.7,22.8 c 4.1,-6 10.4,-10.2 17.5,-11.6 1.8,-0.4 3.5,-0.6 5.3,-0.6 9.9,0.1 19.1,5.5 24.1,14.2 2.9,5.1 4.5,10.8 4.4,16.7 v 2.2 C 54.8,39.1 56.3,33.9 56.4,28.5 56.3,12.8 43.7,0.1 28.2,0 18.4,0 9.7,5.1 4.6,12.8 c -0.1,0 -3.5,5.4 -3.9,10 z"
   id="path34"
   inkscape:connector-curvature="0"
   style="fill:#fc7500" />
		</g>
	</g>
</g>
</svg>